<svg xmlns="http://www.w3.org/2000/svg" width="448" height="448" viewBox="0 0 448 448">
  <g id="Group_19" data-name="Group 19" transform="translate(1642 -3428)">
    <g id="email" transform="translate(-1642 3428)">
      <path id="Path_12" data-name="Path 12" d="M314.375,144H133.625L224,221.465Zm0,0" fill="#fff"/>
      <path id="Path_13" data-name="Path 13" d="M224,240a7.986,7.986,0,0,1-5.207-1.93L120,153.391V304H328V153.391l-98.793,84.68A7.986,7.986,0,0,1,224,240Zm0,0" fill="#fff"/>
      <path id="Path_14" data-name="Path 14" d="M224,0C100.289,0,0,100.289,0,224S100.289,448,224,448,448,347.711,448,224C447.859,100.348,347.652.141,224,0ZM344,312a8,8,0,0,1-8,8H112a8,8,0,0,1-8-8V136a8,8,0,0,1,8-8H336a8,8,0,0,1,8,8Zm0,0" fill="#fff"/>
    </g>
  </g>
</svg>
