<svg xmlns="http://www.w3.org/2000/svg" width="597.617" height="616.307" viewBox="0 0 597.617 616.307">
  <g id="facebook-circular-logo" transform="translate(0 -0.349)">
    <path id="Path_15" data-name="Path 15" d="M298.81.349C133.784.349,0,138.893,0,309.793c0,153.277,107.727,280.215,248.975,304.8V374.351H176.893V287.9h72.082V224.153c0-73.964,43.623-114.27,107.346-114.27,30.519,0,56.747,2.355,64.361,3.392v77.312l-44.2.022c-34.647,0-41.327,17.047-41.327,42.07v55.175h82.672l-10.783,86.452H335.158V616.656C483,598.022,597.617,467.849,597.617,309.7,597.617,138.893,463.833.349,298.81.349Z" transform="translate(0 0)" fill="#fff"/>
  </g>
</svg>
