<svg xmlns="http://www.w3.org/2000/svg" width="295.114" height="201.404" viewBox="0 0 295.114 201.404">
  <g id="Group_1" data-name="Group 1" transform="translate(-43.631 -56.333)">
    <path id="Path_12" data-name="Path 12" d="M208.537,226.769,168.8,123.951a18.521,18.521,0,0,0-1.657-2.774,14.135,14.135,0,0,0-11.454-6.215H126.5l2.549,2a31.031,31.031,0,0,1,9.808,13.243l18.757,48.533h0L178.9,233.829a13.215,13.215,0,0,0,12.326,8.451H221A32.811,32.811,0,0,1,208.537,226.769Z" transform="translate(-15.106 -10.687)" fill="#999"/>
    <path id="Path_13" data-name="Path 13" d="M111.535,114.962h29.192a10.064,10.064,0,0,0-8.159,5.116,77.958,77.958,0,0,0-4.2,10.124L88.322,233.829A13.214,13.214,0,0,1,76,242.28H43.631c8.439-.624,12.608-9.175,15.056-15.509L98.424,123.951A14.055,14.055,0,0,1,111.535,114.962Z" transform="translate(0 -10.688)" fill="#027050"/>
    <path id="Path_14" data-name="Path 14" d="M370.731,226.769,331,123.951a18.524,18.524,0,0,0-1.657-2.774,14.137,14.137,0,0,0-11.454-6.215H288.692l2.549,2a31.052,31.052,0,0,1,9.808,13.243L319.8,178.734h0L341.1,233.829a13.215,13.215,0,0,0,12.326,8.451h29.769A32.81,32.81,0,0,1,370.731,226.769Z" transform="translate(-44.673 -10.687)" fill="#999"/>
    <path id="Path_15" data-name="Path 15" d="M273.729,114.962h29.192a10.066,10.066,0,0,0-8.16,5.116,78.065,78.065,0,0,0-4.2,10.124L250.516,233.829a13.214,13.214,0,0,1-12.325,8.451H205.825c8.439-.624,12.608-9.175,15.056-15.509l39.736-102.819A14.055,14.055,0,0,1,273.729,114.962Z" transform="translate(-29.567 -10.688)" fill="#027050"/>
    <path id="Path_16" data-name="Path 16" d="M149.062,268.945l-34.608-.083a38,38,0,0,1-7.179-.35c-2.16-.442-7.821-2.37-8.723-5.121l6.661,24.105c1.326,4.8,4.645,7.969,8.355,7.987l38.769-.362Z" transform="translate(-10.012 -37.745)" fill="#999"/>
    <path id="Path_17" data-name="Path 17" d="M198.742,114.962h35.185a12.133,12.133,0,0,0-9.835,6.166c-2.137,3.8-3.537,8.263-5.059,12.2l-48.27,124.9a15.929,15.929,0,0,1-14.857,10.186H116.9c10.171-.752,15.2-11.059,18.147-18.694L182.939,125.8A16.941,16.941,0,0,1,198.742,114.962Z" transform="translate(-13.356 -10.688)" fill="#027050"/>
    <circle id="Ellipse_4" data-name="Ellipse 4" cx="19.679" cy="19.679" r="19.679" transform="translate(171.396 56.333)" fill="#027050"/>
    <g id="Group_19" data-name="Group 19" transform="translate(165.612 237.669)">
      <path id="Path_18" data-name="Path 18" d="M209.173,289.752h5.135q.049,1.357.05,1.859a7.628,7.628,0,0,1-.581,3.243,3.453,3.453,0,0,1-2.308,1.778,25.52,25.52,0,0,1-6.444.556q-5.049,0-6.8-.176a11.245,11.245,0,0,1-2.568-.475,3.737,3.737,0,0,1-2.6-3.175,40.39,40.39,0,0,1-.247-5.591,49.421,49.421,0,0,1,.185-5.36,4.349,4.349,0,0,1,1.469-3.012,6.382,6.382,0,0,1,2.913-1,61.474,61.474,0,0,1,7.444-.3q3.2,0,4.555.149a6.6,6.6,0,0,1,2.987.869,3.546,3.546,0,0,1,1.469,2.32,12.642,12.642,0,0,1,.222,2.511q0,.244-.012,1.071H208.9c-.016-.451-.033-.76-.049-.922a1.138,1.138,0,0,0-.679-1.045,19.685,19.685,0,0,0-4.789-.325,27.321,27.321,0,0,0-3.679.163,1.751,1.751,0,0,0-1.531,1.479,17.078,17.078,0,0,0-.235,3.365,15.392,15.392,0,0,0,.235,3.3,1.766,1.766,0,0,0,1.63,1.37,32.514,32.514,0,0,0,3.814.15,38.514,38.514,0,0,0,4.025-.136,1.422,1.422,0,0,0,1.284-.8A5.893,5.893,0,0,0,209.173,289.752Z" transform="translate(-192.806 -278.095)" fill="#f9b30e"/>
      <path id="Path_19" data-name="Path 19" d="M232.7,278.111a60.057,60.057,0,0,1,7.358.3,3.959,3.959,0,0,1,3.616,3.081,41.654,41.654,0,0,1,0,12.308,3.958,3.958,0,0,1-3.616,3.08,61.68,61.68,0,0,1-7.506.3,61.841,61.841,0,0,1-7.5-.3,3.959,3.959,0,0,1-3.617-3.08,41.729,41.729,0,0,1,0-12.308,3.96,3.96,0,0,1,3.617-3.081A63.861,63.861,0,0,1,232.7,278.111Zm-.345,4.818a26.125,26.125,0,0,0-4.691.231,1.758,1.758,0,0,0-1.284,1.29,16.192,16.192,0,0,0-.271,3.65,13.413,13.413,0,0,0,.161,2.483,1.972,1.972,0,0,0,1.864,1.615,60.081,60.081,0,0,0,8.839,0,1.952,1.952,0,0,0,1.851-1.615,12.109,12.109,0,0,0,.173-2.4,28.009,28.009,0,0,0-.1-2.836,2.664,2.664,0,0,0-.791-1.859,4.581,4.581,0,0,0-2.333-.529Q235.132,282.929,232.355,282.929Z" transform="translate(-197.941 -278.098)" fill="#f9b30e"/>
      <path id="Path_20" data-name="Path 20" d="M251.769,278.443h9.306l5.012,12.024,5.012-12.024h9.257v18.524H275.3l.123-13.869h-.839l-6.357,13.869h-4.259L257.607,283.1h-.9l.123,13.869h-5.061Z" transform="translate(-203.555 -278.158)" fill="#f9b30e"/>
      <path id="Path_21" data-name="Path 21" d="M289.613,296.967V278.443h11.541a38.916,38.916,0,0,1,4.419.15,4.422,4.422,0,0,1,3.6,2.13,16.436,16.436,0,0,1-.062,9.472,3.71,3.71,0,0,1-2.283,1.8,12,12,0,0,1-3.147.42q-.889.015-2.481.014h-6.456v4.533Zm5.135-9.16h6.418q1.568-.014,1.889-.041a1.522,1.522,0,0,0,1.444-.8,4.443,4.443,0,0,0,.2-1.6,3.654,3.654,0,0,0-.222-1.52,1.533,1.533,0,0,0-1.395-.719q-.334-.027-1.913-.054h-6.418Z" transform="translate(-210.453 -278.158)" fill="#f9b30e"/>
      <path id="Path_22" data-name="Path 22" d="M332.954,296.967l-1.444-3.134H320.364l-1.444,3.134h-5.864l8.937-18.524h7.974l8.813,18.524Zm-3.246-7.192-3.246-7.017h-1.025l-3.246,7.017Z" transform="translate(-214.727 -278.158)" fill="#f9b30e"/>
      <path id="Path_23" data-name="Path 23" d="M345.451,278.443h9l8.826,13.814h.53l-.123-13.814H368.9v18.524h-8.924l-8.863-13.828h-.555l.111,13.828h-5.221Z" transform="translate(-220.632 -278.158)" fill="#f9b30e"/>
      <path id="Path_24" data-name="Path 24" d="M374.947,278.443H381.7l5.493,7.423,5.259-7.423h6.69l-9.221,11.97v6.554h-5.308v-6.554Z" transform="translate(-226.009 -278.158)" fill="#f9b30e"/>
    </g>
  </g>
</svg>
